<?xml version="1.0" encoding="UTF-8"?><svg id="Capa_2" xmlns="http://www.w3.org/2000/svg" viewBox="0 0 451.461143248387089 189.323463441580316"><defs><style>.cls-1{fill:#e5536b;}.cls-2{fill:#fff;}.cls-3{fill:#0b394e;}.cls-4{stroke:#fbde57;stroke-width:4.251968503937008px;}.cls-4,.cls-5{fill:none;stroke-linecap:round;stroke-miterlimit:10;}.cls-6{fill:#0091c4;}.cls-5{stroke:#83cbdb;stroke-width:2.834645669291338px;}.cls-7{fill:#fbde57;}.cls-8{fill:#83cbdb;}</style></defs><g id="Capa_2-2"><path class="cls-3" d="M212.387957286258825,30.717783088583019h2.813087316797464c1.201010577779016-2.452300847938204,4.578801159679642-8.516091100910671,11.799321097774737-12.737031001488504,7.187706715583772-4.201767058352743,14.254504761127464-3.963627427649044,19.066474814637331-3.82891939853107,6.212467218547317.173912199039478,11.219451255987224,1.584912562886529,14.495198651078681,2.774010329909288v-1.953531386861869h71.694707883678348c1.771172114709771,3.138675881275049,3.54232303225217,6.277351762549188,5.313495146965579,9.416027643824236,2.018649099758477-3.151701543571107,4.037298199513316-6.303392488555801,6.055947299271793-9.455094032126908h37.625192567196791c-8.90815399730127,14.755680101245161-17.816329191773548,29.511360202491232-26.724483189074817,44.26702970514998v21.489396381953156c2.764238433537685-2.30226726334422,7.486396068579779-5.595587114159571,14.104492373706307-7.46305798202502,6.931878044702898-1.956011456005399,12.623276377056754-1.410777793539637,15.628251094891311-1.09396485833895,4.022121024241642.424070626361754,7.325891080934525,1.31767981338362,9.689524157700362,2.109818137244474v-1.400242798972613h57.511976747504377v29.843647073372267h-2.969384665764665v9.145541128394143h2.969384665764665v31.253492191335681h-56.88691453465799v-2.109818137243565c-2.590570001982996,1.113042313289043-6.079242991483625,2.29472107005131-10.314586370546749,2.891230691988312-1.857486999775574.26161549887911-7.88015473874475.970491330470395-15.315677594127919-.781412554744747-1.505953096566373-.354819464893808-2.739246967554209-.732743847449456-3.594510470127716-1.015832081731787v1.055619173888772h-58.371522078854468v-1.526471959223272c-2.749209638473985,1.151917927041723-7.028961093226826,2.561254312873643-12.424446902135969,2.854156837869596-6.233410024648038.338391656467138-11.228778011743998-.961355349265432-14.22171273578715-1.992597775162722h-67.279898646464062c-.556499959473513,3.356211860631447-2.273735869608572,10.875463546070023-8.360832413376556,17.952944966385985-7.331158578221221,8.523955251785083-16.415683646532671,11.075840414561753-19.613457243807716,11.818864890512486h-24.223916380115952c-1.236939784601418-.020158510729743-2.936709224872175-.187361804779357-4.844624297231348-.8204789430456-1.279991241272-.42474893587314-2.338228265924954-.954508662656735-3.164727205867166-1.445604747408652-.031541392183499,1.89738007779124-.336833664311598,5.262303976185649-2.148884525548056,8.908090405784606-.933375082006023,1.87794227091581-3.164388051112837,6.206849967922608-8.282975200009787,8.673692075968574-1.487214796371518.716739982464787-6.271978279404721,2.928156165900873-11.916536160561918,1.015832081731787-5.842592462122411-1.979434331249649-8.329608978776378-6.928104948059627-8.79089124087659-7.892279521223827-7.287041963647425,1.240946050143975-19.376594742725501,2.353098082199722-33.71795226715858-.859545331350091-4.704781253157307-1.053923400115309-16.931538028375144-4.204035155773454-30.162525408035435-13.127726680273554-12.279531937811043-8.281968334331395-19.97069318632839-17.858977902174956-24.301929922628005-24.223789197081715H0v-31.178581384901008h17.114074826839897c-1.765107073827494-7.639630426171607-6.321566414041627-31.800845571018726,5.859477334575786-58.254089745053534,2.394967796521087-5.201086542969279,12.620240544556509-26.090507565336338,36.882672848910261-40.320889944538976C83.740825007339481-1.302559200219548,106.791032767426259-.390052734211167,115.18023229645496.359903217038664c24.783876777943988,2.215549632011061,41.774258156253381,13.754293892343412,48.525716470064253,18.910177465667402.998100647216233-.727677723302804,3.483638661111399-2.327672074186012,6.993646604398236-2.461447427727762,5.243947225089869-.199857537772004,8.742816054403193,3.026606432030349,9.416017045237822,3.672643246733969l7.091344370914157-7.091344370914157c1.916743694566321-1.58863266660228,5.268016614084445-3.872500784505974,9.943455681669548-4.825197088941422,2.921669831222061-.595333178881447,7.473953328520111-1.52293203147201,11.799331696361151,1.093975456925364,4.101292462284619,2.48133037522075,5.456300495854521,6.611292012859849,5.782450785392939,7.657838797062141,2.122621229233118,6.811001170426607-1.798781431460156,12.621029476807962-2.344237664234242,13.401233792738822Z"/><path class="cls-8" d="M135.421056945579949,177.42228820256787c-.061047855840116,0-.12243486643365-.001356619017315-.183821877028095-.004069857055583-1.873490864761152-.086823617193659-3.425802176855541-1.482784587387869-3.710353016018416-3.336604476378852l-17.275186583537106-112.656017392295325-19.709300257757604,78.711374617048932c-.403255003294362,1.610985084651475-1.774118521644596,2.795652642691493-3.42614133160987,2.961838472476302-1.651344500456617.164490056011346-3.231127347678921-.722399627433333-3.947083034773641-2.221124488291025l-15.240936365065863-31.908357628247359-9.10562685320474,14.844803611619682c-1.582496085259663,2.537895029145147-3.608267434864501,4.399515477492969-6.036615478255044,5.558407274180354-1.812443008921036.864505469635333-3.831092108677694,1.32168607892163-5.837531637266693,1.32168607892163H11.956177522160033v-7.875851712794429h38.992282988902843c.586059416058561,0,1.486176134934794-.095980795569631,2.446323245387248-.553839714364585,1.051040584701695-.501609882147932,1.969810815085111-1.37425506589716,2.729856620286228-2.592838099402798l12.878045189326258-20.995375087441062c.754619329125489-1.230453449918969,2.12141299041923-1.944713363240226,3.562481542984642-1.873490864760242,1.441068552564502.075631510289895,2.725447608475406.933014730078867,3.347457428528287,2.235368987986476l13.647587327656765,28.572431461378073,21.80052847501247-87.063060450637749c.455484835512834-1.818547794505321,2.128196085513082-3.064602363138874,4.003382724047697-2.977100436435649,1.873151710005914.087162771948897,3.424784712591645,1.483123742144016,3.708996396999282,3.336604476378852l17.270438416972866,112.625832619130051,15.337595470145061-61.409733962646897c.379853325222939-1.521109074665219,1.625907893856493-2.671861157238709,3.172114420367507-2.929957925537565,1.547563145529239-.258775077808423,3.098178683850165.425639217102798,3.951831201337882,1.740542200933305l9.582817593016443,14.76611970853719c.02882815414614.044429272860725.056977998783623.089536855231017.0841103791563.135322747110877.244530578112062.412412181670334.688144997212476,1.001523990520582,1.414275326946154,1.464131075881596.743766376977874.474477501774345,1.485158670671808.62947122465539,2.005082909570774.672204723743562h39.325332957982937c2.069585904471751.097019457005445,3.718789490540075,1.706457148088703,3.867593639148254,3.625246369769229.165136569761671,2.129425521498888-1.557345640485437,4.127958504869639-3.867593639148254,4.2506053430252h-39.461673169357709c-.078344748327254,0-.156350341900179-.00237408328303-.234695090227433-.00712224984818-2.084105967406686-.124469794961442-4.112929709803211-.781412554744747-5.867377255677638-1.899944935624262-1.586226787560918-1.011020323651792-2.936741020630507-2.397484960716611-3.910793476024082-4.013557366687564l-4.614200437195905-7.110040276764266-17.888039225214925,71.622361935073059c-.43954456204392,1.759534867192997-2.02068402828445,2.983205222019023-3.818882537510035,2.983205222019023Z"/><path class="cls-8" d="M146.554426485400654,30.447095200017429c1.276313531900996-1.146078106110508,2.552616465215579-2.292145613634602,3.828929997116575-3.43822371974511,5.365693183428448,1.354446308507249,10.7313969654424,2.708903215600003,16.097090148869938,4.063349524106343,1.146078106110508-.911647980535236,2.292145613634602-1.823295961070471,3.43822371974511-2.734943941605707.599116874112951-.589185998953326,1.501575880514793-.667732120416076,2.10980753865897-.234419526988859.473905178126188.337617959680756.713369632090689.946188772580172.625136402947646,1.562825109488585-.416757601965401.70326917955299-.833504605343478,1.40653835910598-1.250262207308879,2.10980753865897,3.581474209246153.768386892448689,7.162948418492306,1.536784383482882,10.744422627738459,2.305171275931571,3.750776023339313-3.646591922141852,7.501562645265039-7.293183844283703,11.252338668605262-10.939775766424646,1.471465297451687-1.077409866877133,2.773702970912382-1.870703436621625,3.750776023339313-2.422381039426,3.05541338900548-1.725174251111639,4.033790067520385-1.710368026353535,4.688475328466666-1.562825109488585.220832139631966.04977096024686,1.333514100992033.300512309803707,1.953531386861869,1.250262207307969.86764265111924,1.329073293423789.158660833665635,3.089763406500424-.390706277372374,4.454045202893212-.340288803374278.845067662759902-1.025890139924741,2.218792799351831-2.422370440839586,3.594499871542212-3.959154824321558,4.037298199513316-7.918320247229531,8.074606997613046-11.877475071551999,12.111905197127271.70326917955299,3.594489272955798,1.406548957692394,7.188999743084423,2.109818137245384,10.783489016041131l2.344237664233333-1.758178248175682c.74834496616495-.22360896918417,1.558235921715095-.029739632549536,2.10980753865897.507905442280389.595704129394107.580654137156671.795360294030615,1.469917903884379.507916040866803,2.266104887628899-1.211185220419793,1.263287869604937-2.42238103942509,2.526554542037047-3.633566259844883,3.789842411641985,1.002817018023052,5.83454283599167,2.005623437460599,11.669106869156167,3.008440455483651,17.503649705147836-1.211185220419793,1.40653835910598-2.42238103942509,2.813097915383878-3.633566259844883,4.219636274489858-4.401953152293572-9.012295704155804-8.803916903173558-18.024591408310698-13.20587005546713-27.036887112466502-5.313611731414312,4.909879791746789-10.62721286424312,9.819759583492669-15.940824595658341,14.729639375239458.48187531486019,3.750776023339313.963740031134876,7.501552046678626,1.445615345995066,11.252328070018848-.937699305128262.872581592232564-1.875388011670111,1.745163184465127-2.813087316798374,2.617744776697691-2.012130969314967-3.249378112914201-4.024272537217257-6.498756225828402-6.036403506533134-9.748134338742602l-1.308872388348391,1.347949375237476c-.430525165286781.425533231242298-1.128452657453636.431786397030919-1.562825109489495.019522595565832-.427769532904676-.405989438504548-.464716203990974-1.089555846529038-.078143375191758-1.543281316751745.462342120708854-.449316458412795.924673642832204-.898632916825591,1.387015763541058-1.347949375237476-3.145183413130326-1.940495125979396-6.290377424846156-3.88101144913071-9.435560837975572-5.821506575110106.8921147863839-1.048390938181001,1.784218974181385-2.096803073534829,2.676333760566195-3.14519401171583,3.145183413129416.592566947913838,6.290377424845246,1.185155092999594,9.435560837974663,1.777722040912522,5.222442693927405-5.587108245292256,10.444874789268397-11.174195293412595,15.667317483194893-16.761303538705761l-25.591261167885023-13.772396277373446Z"/><path class="cls-1" d="M77.048114656188773,89.33803278564028c-.012548725922898,0-.025097451844886,0-.037646177767783-.000339154754329-.723756246451558-.018314356751944-1.327451709752495-.558927035685883-1.425806588605155-1.27590018704359l-4.770889933850412-34.844420339369208-4.104450840937716,27.594309148928005c-.105137973945602.706798508718748-.701711187398359,1.23723654501282-1.416310255473945,1.258603294556451-.738679055657485.012548725921988-1.342374518958422-.472442573246553-1.489228527727391-1.171440522607554l-4.116321257351046-19.535313868615049-3.119206278639467,9.30742393222863c-.17534300816078.522976631691563-.627436296127598.904864885442294-1.17245798687145.989653574108161-.54536084549909.084449533911538-1.092078310016404-.141088377939923-1.418345184002646-.585720261303322l-2.13599664486992-2.913000187804755h-7.730693477798923v-2.953359603608988h8.478868866585799c.470407644718762,0,.912665444800041.224181292832327,1.190772343623394.603356308545699l.893333623784201,1.218243878751309,3.939282475415894-11.754086332371116c.211971721664668-.631506153183182.82177197054898-1.040526787307499,1.485497825425227-1.004915538068417.665082473895382.038663642031679,1.221974581052564.517889310371174,1.359332256691232,1.169744748835001l3.540097329177115,16.801726546027567,4.41579490571894-29.686215675692438c.10819036673729-.726469484488916.71832977037684-1.264368925385497,1.469218397201985-1.259281604065109.734948353355321.004409011809912,1.35492324488041.548413238290777,1.454634742751296,1.276239341797918l4.942841394465177,36.101667014906525,4.177029958435014-22.109837611264993c.127522187753129-.676274580799145.705441889699614-1.174492915400151,1.392908577402522-1.201625295772828.672883033252219-.022045059053198,1.302015103153281.424282598083664,1.483123742144016,1.08834760771515l3.336604476378852,12.27231479749662.793622125912407-2.354412306873201c.202475388533458-.60064307050925.765472281274924-1.004915538068417,1.399352517741136-1.004915538068417h13.128680553022605c-.285785574441434.984460266927272-.57157644817562,1.968899336682625-.857362022617053,2.953359603609897h-11.210781612572646l-2.005422064325103,5.949452706306147c-.207223555099517.615565879714268-.770220447840984,1.027299751875944-1.443442635847532,1.00423722855794-.649481355180797-.01933182101493-1.210443319394471-.46125046634188-1.380699006234863-1.088686762469479l-2.92622722323631-10.762058674980835-4.669143507451736,24.714206972325883c-.131931199563951.69899794936191-.742748912713068,1.202642760036724-1.450564885695712,1.202642760036724Z"/><path class="cls-6" d="M27.99616248921302,112.150938203322767c-3.133111623580589-11.889748234236322-3.473283842507954-24.458823442064386-.983887943278205-36.348571676300708,1.353566625861276-6.467342016677321,6.04712927564924-23.161217350721927,20.357764148673596-38.454044393251934,4.363082837833645-4.662540588321463,20.164864582666269-21.048452806545356,46.869491320716406-25.264994293898781,24.931562775720522-3.936579835964949,44.090160500592901,5.14633424726253,50.361365083213968,8.459356869606381-2.029936593935417,1.826072790625403-4.059862589285331,3.652134982663483-6.089799183220748,5.478207773287977-7.742224739457015-3.638113053274537-23.626198519365062-9.27622169480037-43.022798093323217-6.161424427970815-21.469513434460168,3.448186390663068-35.760138176959117,15.809020579127719-42.367551107312465,22.869883416466109-13.898277009107915,14.852074241672199-17.615747638092216,30.976063602020986-18.400162904757053,34.686713378449895-3.290380067999649,15.565041127491895-.514174505948176,28.369468537883222,1.303039853944938,34.669098528379436-2.675820391552406.02191787601987-5.351641445516179.043856949212568-8.027461174657219.065774825232438Z"/><path class="cls-6" d="M47.82295337299638,141.896060820465209c2.419154432374853.105434734356095,7.038836325810735-.015855484780332,12.190035324086239-2.305171275929752,5.634804532313865-2.504233919746184,8.974220283651448-6.299884356561961,10.47092876350689-8.243898213120701.82889422039716,2.023036914393742,2.031799295439669,4.896250010042422,3.555428183946788,8.322030989726045,2.230143885047255,5.014318259010906,3.368954010751622,7.550771880449247,4.532191227730436,8.986244379562777.813703796893606,1.004131242696531,5.057632030686364,6.241252978348712,11.643047595624012,6.524807550420519,7.415708798697779.319314201515226,12.432798587969046-5.873905984704834,13.244941743062554-6.915513827792893,2.882502756349822-3.696956403209697,2.820485129883309-6.659197621955173,5.157324981031707-17.777135620441186,1.244279305464261-5.919861453960948,2.434876772416828-10.66084217788466,3.203788294876176-13.596565734251271,2.604708515816128,17.347362954764321,5.209417031631347,34.694704712355815,7.814125547446565,52.042067667121955-5.908743537161172,1.056382272086921-15.100250733397843,1.96237060765452-26.021033833560978,0-3.050776507593582-.548201266570686-13.539296274351727-2.632476811355446-25.31776995330074-9.611370183924009-9.693083957802628-5.743267812644262-16.335562972623848-12.476231593740522-20.47300787444965-17.425495731371484Z"/><path class="cls-5" d="M132.488523563623858,48.123735027215844c3.660189908086068-3.660200506672481,7.320390414758549-7.320379816172135,10.980580322844617-10.980580322844617"/><path class="cls-5" d="M132.488523563623858,62.287712854125857c6.733164307874176-6.733183804682994,13.46634811255808-13.466328615749262,20.199512420432256-20.199512420432256"/><path class="cls-5" d="M169.390730345016891,84.205466879142477c4.278229273393663-4.278241661598258,8.556470934991012-8.556458546787326,12.834700208385584-12.834700208385584"/><path class="cls-5" d="M172.858247903602205,93.86568023624659c4.060085088982305-4.060096845520093,8.120181934503307-8.12017017796552,12.180267023485612-12.180267023485612"/><path class="cls-8" d="M133.269936118368605,84.850125100211699c.625125804361232,3.008451054070065,1.250262207307969,6.016880910968212,1.875388011669202,9.025331965038276,5.431764769071378-5.73131260754144,10.863529538141847-11.462604017910053,16.295294307212316-17.193916625451493-1.615871032835457-1.613973885926498-3.23173146708541-3.227947771853906-4.847602499920868-4.841921657780404-4.441030139182658,4.336835439397873-8.882049679778902,8.673670878795747-13.32307981896065,13.01050631819362Z"/><path class="cls-2" d="M161.127291575296113,144.706339511951228c.875506801991833-5.061206403843244,5.21889216758882-8.832416501150874,10.314649962063413-8.986244379562777,5.012781464028194-.151326612096454,9.520837061601014,3.235091218874004,10.783489016040221,8.126677851041677,4.896610361970488-.83860252525119,9.466964448540239,2.449524018382363,10.236506586871656,6.954580216093746.685760315343941,4.01457483095146-1.785035065309785,8.18592394724692-5.938737535775545,9.611370183924009h-27.349439416061614c-3.827202427585689-.99830202035082-6.371499002726523-4.628020993448445-6.016880910967302-8.466595703899657.37136385777012-4.019810532478004,3.823492922456353-7.203795369257932,7.970412297829171-7.239788167596998Z"/><path class="cls-7" d="M177.458811849741323,134.54797630027133c.866455609476361.250444589148174,2.928007785697446.975472665928464,4.610331953275818,2.969363468595475,1.151440990668561,1.364695141248376,1.64969112102699,2.76016857648392,1.875398610255615,3.594489272956707.870557262290276-.01068337477227,2.662481408555323.083728830057225,4.610331953275818,1.093986055511778,1.987648235463894,1.030903271142961,3.106689348475811,2.480726255813352,3.594499871542212,3.203782995584334,3.301978895645334-4.066910649031342,2.62628723708076-10.008689979014889-1.178350800733824-13.086646560617737-4.025724543510478-3.256818320343882-10.404769739529002-2.37709328109122-13.512211587615639,2.225024767969444Z"/><path class="cls-4" d="M173.903388965087288,127.378520349924656c.631643934802923.6316333362156,1.263277271018524,1.263287869605847,1.894921205821447,1.894921205821447"/><path class="cls-4" d="M185.44875734172183,123.881686449139124v2.695877553303035"/><path class="cls-4" d="M194.533960719543757,129.919722137929057c.735404092557474-.723353500179655,1.470808185114038-1.446685803188302,2.206212277671511-2.170039303369776"/><path class="cls-4" d="M198.420207870200102,139.119231266658971h2.578657191221282"/><path class="cls-4" d="M195.66573073444215,148.16408582726217c.592566947912928.599074479767296,1.18514449441318,1.198170156709239,1.777711442327018,1.797244636476535"/><path class="cls-8" d="M257.824775704588319,38.149662353960593c1.349074011741322-2.47972233442124,2.698148023480826-4.959455124836495,4.047222035222148-7.439177459257735-2.784138108057959-1.772635823043856-8.792214292259814-5.007239011815727-16.72852192798382-4.779580681136395-3.144451619067695.090203849666068-10.10567519261167.289881943681394-15.10964147868799,5.39629604696438-1.196834756945464,1.221343604006506-4.082249611017687,4.165834817255927-4.162844403323106,8.634067401545508-.080887560103292,4.484554389009645,2.716843338563194,7.551422541692773,3.39194496804339,8.248628139897846,1.639290547189376,1.692971614095768,3.302776261660256,2.336391585468846,6.629747690602017,3.623231528215001,2.260334694028643.874288291835001,3.576451416542113,1.163898379704733,10.86967367266152,3.237781810576053,3.368732664082927.957936234030967,5.069985424455808,1.465972010960286,5.897389044690499,2.890872882301665.81000484825563,1.394954908035288.90896036387494,3.503489498961244,0,5.010846329323613-2.395802536415431,3.973068134465393-11.507217376096378,3.294285995528298-17.615064643352525.809440224647005-2.718286265564529-1.105867619805394-4.750282989381958-2.532295066092956-6.090092991522397-3.623231528215911-1.464717291828492,2.492583205535084-2.929413671670773,4.985145499083956-4.394130963497446,7.47772870461813,1.73828788677929,1.423081528599141,4.449422253288503,3.325716709809058,8.132984859812495,4.779580681136395,2.446827781152024.965736404640666,6.529642015781064,2.20981133694022,11.679134809293828,2.119973447021039,3.935802976217019-.068654048557619,8.704321216997414-.151841927071473,13.06674961040153-3.430506669395072,1.304008682882341-.980061114742057,4.620524119049151-3.408507260597617,5.781745764603329-7.940260000992566,1.097711945440096-4.283862063694869-.119992973079206-8.88665281899921-2.736709724835237-11.910400457480137-2.256215032872205-2.607159974357273-5.063126293194728-3.434082618924549-10.676948813839772-5.087927908056372-7.645045500996275-2.252241755620162-12.030351606588738-1.827226561321368-13.259474469221459-4.741039891770015-.6977074858587-1.654012585016972.018318899341466-3.443367540508007.07710249072079-3.584690738848622.889198537530319-2.137706810766758,3.191566322509971-2.936293714914427,4.394110051509415-3.353404178675191,4.011086124193753-1.391263942586193,7.766815992848933-.207499176611236,10.381797049800298.616715365827076,1.561874376689957.492289051810076,3.863154738421144,1.381790813132284,6.423827368902494,3.045056951754304Z"/><path class="cls-8" d="M271.662403838283353,26.971620542393794h9.559161362274608v21.007009611393187c6.578346030124521-7.002336537130759,13.156671148259193-14.004673074261518,19.735017178383714-21.007009611393187h11.100960232834041c-6.077253032395674,6.706818813345308-12.154526976777561,13.413637626688796-18.231780009176873,20.120466896026301,6.565506070997799,8.5826761970593,13.130991230009386,17.165373306103902,19.696497301007184,25.748049503163202h-12.103125316301885c-4.676798272164888-6.14149465200444-9.353575632339926-12.283010215994182-14.030373904501175-18.424504867997712-2.158514236391056,2.055731827414093-4.317049384764687,4.111463654829095-6.475563621152105,6.167195482243187v12.257853097378757h-9.250793223367509V26.971620542393794Z"/><path class="cls-8" d="M314.254597637533152,27.029442182437379h10.850413733969617c3.989400395177654,6.578335574130506,7.97882170234152,13.156671148261921,11.968222097522812,19.735017178385533,4.21424606380242-6.578346030123612,8.428492127604841-13.156681604255027,12.642738191410899-19.735017178385533h9.790427010459098c-5.935929834060516,9.546300491159855-11.871838756131183,19.0926009823188-17.807768590188061,28.638901473478654v17.173884484222071h-10.330060797550686c.128483239212073-5.750315050323479.256966478427785-11.50065101263317.385449717639858-17.25096606295574-5.833147425084462-9.520599660920197-11.666273938182712-19.041209777832591-17.499421363263536-28.561819894744986Z"/><path class="cls-1" d="M264.704135525102174,100.18005939683826c-.305853578927781-8.077251489297851-6.683283704232963-14.998675236231975-15.055173718017613-15.991228714377939h-24.49384817403552v47.193626205846158h9.711729290835137v-13.885041491127595h14.392088914555643c9.028330426506727-.879302588813516,15.77340273254049-8.651292992626622,15.445203686662353-17.317356000340624ZM247.503796979544859,108.916756087024623h-12.636954055660681v-16.342281078732412h12.753971510444899c3.927004212282554.931653616505173,6.656833104145335,4.512557016768369,6.51349201215271,8.463641855369133-.136992947971521,3.776722482826699-2.868472357276914,7.046270579344309-6.630509466936928,7.87863922336328Z"/><path class="cls-1" d="M271.295625066788489,84.091344350779764h9.673619266231981v28.511186475732757c.055948309302039.771616905738483.210440974289668,1.779829139136382.623176138047711,2.886226000056922,1.346779914510989,3.610274146599295,5.204631677926955,7.626279338052882,10.140779184730491,7.551138473326318,5.090089999306656-.077489678015809,9.82328734175826-4.482403332669492,10.374792933813296-10.456874436007638v-28.491676513108359h10.062781655193248v29.330245177788129c-.016124285812111,1.647428015340665-.270219330490363,8.087027631088858-5.226405811918085,13.183021404335705-5.352099063529749,5.503100249308773-12.383747751147894,5.528281220591452-15.21116877708846,5.538417090545408-2.828394408028544.010135869952137-9.644714050456969.034555063952212-14.977155028002016-5.226405811918085-4.874443546919792-4.809121144943674-5.377766725854599-10.945533402255023-5.460419561008166-12.636954055659771v-30.188323805091386Z"/><path class="cls-1" d="M390.771969956873363,96.35071080007765c1.365104890250223-2.477744092792818,2.730209780500445-4.955488185585637,4.095314670754306-7.433232278377545-2.817221674551547-1.771195663268372-8.896691079993616-5.003205068142961-16.92730487121662-4.775729907394634-3.181816746149707.090143645096759-10.225759672688582.289644651193157-15.289187467107695,5.391965407981843-1.211056595344417,1.220367206575247-4.130758474871982,4.162478034495507-4.212310965060169,8.627148884866074-.081848736910615,4.480964420024065,2.749127249684534,7.545361662268078,3.43225102777069,8.242006987119566,1.658770032659959,1.691611097726309,3.342022740758694,2.334529963681234,6.708528156956163,3.620325374632557,2.287193969765212.873589259193977,3.61894994342947,1.162958824146699,10.998836651549937,3.235183476884231,3.408762894898246.957173155469718,5.130231430001004,1.46479191186063,5.967466984435305,2.888553652865085.819630035017326,1.393840822186576.919761426706827,3.500684020318658,0,5.006823510234426-2.424271559655608,3.969896505382167-11.643956207433803,3.291660798190605-17.824382263290317.808795869221285-2.750587322811043-1.104979108756197-4.806730010695901-2.530264404325862-6.162460808274773-3.620325374632557-1.482122345038078,2.49058850419533-2.964223529594165,4.981155847910486-4.446345874632243,7.471744352103997,1.758943745309807,1.421920779241191,4.502294183934282,3.323041790135903,8.22962810628087,4.775729907396453,2.475903131024097.964960212133519,6.607232938858942,2.208053774304062,11.817916514082754,2.118269857368432,3.982571632946929-.068581115905545,8.807753582263103-.151720642099463,13.222020169108873-3.427743845517398,1.319504055700236-.979285857143623,4.675429231861926-3.405779267206526,5.850449529647449-7.933889236826872,1.110755919817166-4.280426550404627-.121418834638462-8.879529930656645-2.769229705751059-11.900844435478575-2.283025355191057-2.60506670137147-5.123290792536864-3.431341127129599-10.803821667228476-5.083847657687329-7.735890624815511-2.250438215884969-12.173306776854588-1.825768541367324-13.417035153426696-4.737238994147447-.705998257042666-1.652696974878381.018536580540967-3.440609417400992.078018690015597-3.581813300905196.899764773042989-2.136002339668266,3.229491307745775-2.933942882614247,4.446324714150251-3.350719698065404,4.058749361196533-1.39015889865459,7.859108100259618-.207351544202538,10.505162651526916.616214340107035,1.580433935439942.491896519699367,3.909060125180986,1.380679003583282,6.500160909708939,3.042623108251973Z"/><path class="cls-1" d="M321.417290381308703,84.130343115547475h9.864952327017818v38.378953146601816h22.738755636099086v9.675566030397022c-10.867895600877091-.0136273491662-21.735812362236175-.027233537850407-32.603707963116904-.040860887014787v-48.01365828998405Z"/><path class="cls-1" d="M440.139623885072069,84.130343115547475h-34.868704589294794v48.582226863784854h34.868704589294794v-8.383281598198664h-25.196079865625506v-11.964514988754672h22.310382877571101v-8.787438518657837h-22.310298235650407v-10.985942677819367h25.196249149463256c-.000084641920694-2.820357051525207-.000169283841387-5.640692028829108-.000253925758443-8.461049080354314Z"/></g></svg>
